<?xml version="1.0" encoding="utf-8"?>
<!-- Generator: Adobe Illustrator 23.0.0, SVG Export Plug-In . SVG Version: 6.00 Build 0)  -->
<svg version="1.1" id="katman_1" xmlns="http://www.w3.org/2000/svg" xmlns:xlink="http://www.w3.org/1999/xlink" x="0px" y="0px"
	 viewBox="0 0 399.3 400" style="enable-background:new 0 0 399.3 400;" xml:space="preserve">
<style type="text/css">
	.st0{fill:#007BFF;}
	.st1{fill:none;stroke:#FFFFFF;stroke-width:2;stroke-miterlimit:10;}
	.st2{fill:#FFF6DB;}
</style>
<g>
	<g>
		<g>
			<g>
				
					<image style="overflow:visible;opacity:0.85;enable-background:new    ;" width="425" height="424" xlink:href="995C8F89.png"  transform="matrix(1 0 0 1 -13 -12)">
				</image>
				
					<image style="overflow:visible;opacity:0.75;enable-background:new    ;" width="423" height="422" xlink:href="995C8F8B.png"  transform="matrix(1 0 0 1 -12 -11)">
				</image>
				<g>
					<path class="st0" d="M199.3,13.4C302.4,13.4,387,97,387,200.1s-83.6,186.7-186.7,186.7S12.6,303.2,12.6,200.1
						S98.7,13.4,199.3,13.4z"/>
					<path class="st1" d="M199.3,13.4C302.4,13.4,387,97,387,200.1s-83.6,186.7-186.7,186.7S12.6,303.2,12.6,200.1
						S98.7,13.4,199.3,13.4z"/>
				</g>
			</g>
		</g>
	</g>
	<g>
		<path class="st2" d="M111.1,144.2c8.8,0,15,6.2,15,15c0,10.5-7.6,16.9-19.8,16.9h-5v27.2h4.5c6.6,0,12.4,1.2,17.1,3.4l31.9-48.9
			c-1.3-22.6-20.3-40.9-43.3-40.9c-12.2,0-23.2,4.8-31.7,14.1c-6.9,7.4-9.5,14.3-10.7,27.7H98C99.1,149,103.2,144.2,111.1,144.2z"/>
		<path class="st2" d="M314.6,175.3v53.1c0,16.5-9.5,27.4-24.1,27.4c-15.3,0-25.1-11.2-25.1-28.6v-56.1c0-15.3,10.7-27,24.6-27
			c2.7,0,5.3,0.6,7.7,1.5l15.2-23.8c-6.9-3.1-14.7-4.9-23.2-4.9c-12.7,0-25.1,4.5-35.1,12.4c-11.9,9.8-18.1,23.9-18.1,41.3v6.9
			c-5.5-2.5-11.4-3.8-17.6-3.8c-1.9,0-4.5,0.2-7.9,0.5l35.6-54.2h-33.9l-77.5,120.8l0,0c-4.1,8.8-13,15.1-23,15.1
			c-13.4,0-24.3-10.3-25.8-24.1H57.6c1.4,29.1,24.6,51.3,54,51.3c22.5,0,41.3-12.2,50-30.3c7.2,14.2,20.2,24.7,35.9,28.6l16.4-25.8
			c-1.1,0.1-2.2,0.2-3.3,0.2c-14.6,0-26.5-12.7-26.5-28.2c0-15.3,11.7-27.5,26.3-27.5c12.7,0,23.4,9.3,26.2,21.7v6.3
			c0,15.3,4.1,27.9,12.2,36.8c10.3,11.5,25.8,18.1,41.8,18.1c30.6,0,52.5-22.4,52.5-53.5v-54.3h-28.5L314.6,175.3L314.6,175.3z"/>
	</g>
</g>
</svg>
